<svg width="16" height="17" viewBox="0 0 16 17" fill="none" xmlns="http://www.w3.org/2000/svg">
<path fill-rule="evenodd" clip-rule="evenodd" d="M2.16699 7.26236C2.16699 3.99634 4.77033 1.3335 8.00033 1.3335C11.2303 1.3335 13.8337 3.99634 13.8337 7.26236C13.8337 8.83909 13.3843 10.5321 12.59 11.9947C11.7966 13.4556 10.6374 14.725 9.18733 15.4028C8.43404 15.7549 7.56661 15.7549 6.81332 15.4028C5.36324 14.725 4.20407 13.4556 3.4107 11.9947C2.61634 10.5321 2.16699 8.83909 2.16699 7.26236ZM8.00033 2.3335C5.33928 2.3335 3.16699 4.53182 3.16699 7.26236C3.16699 8.66041 3.56875 10.1904 4.28946 11.5175C5.01115 12.8463 6.03101 13.9333 7.23676 14.4968C7.72169 14.7235 8.27896 14.7235 8.76389 14.4968C9.96964 13.9333 10.9895 12.8463 11.7112 11.5175C12.4319 10.1904 12.8337 8.66041 12.8337 7.26236C12.8337 4.53182 10.6614 2.3335 8.00033 2.3335ZM8.00033 5.66683C7.1719 5.66683 6.50033 6.3384 6.50033 7.16683C6.50033 7.99526 7.1719 8.66683 8.00033 8.66683C8.82875 8.66683 9.50033 7.99526 9.50033 7.16683C9.50033 6.3384 8.82875 5.66683 8.00033 5.66683ZM5.50033 7.16683C5.50033 5.78612 6.61961 4.66683 8.00033 4.66683C9.38104 4.66683 10.5003 5.78612 10.5003 7.16683C10.5003 8.54754 9.38104 9.66683 8.00033 9.66683C6.61961 9.66683 5.50033 8.54754 5.50033 7.16683Z" fill="#999999"/>
</svg>
