<svg width="21" height="20" viewBox="0 0 21 20" fill="none" xmlns="http://www.w3.org/2000/svg">
<path d="M5.67175 11.1399C5.6957 10.8932 5.88757 10.6393 6.20316 10.5547C6.51875 10.4701 6.81187 10.5941 6.95595 10.7958C7.15661 11.0766 7.54697 11.1416 7.82782 10.941C8.10868 10.7403 8.17369 10.3499 7.97303 10.0691C7.51429 9.42702 6.67891 9.13313 5.87964 9.3473C5.08036 9.56146 4.50384 10.2337 4.4276 11.0191C4.39425 11.3626 4.64572 11.6682 4.98928 11.7015C5.33285 11.7349 5.6384 11.4834 5.67175 11.1399Z" fill="white"/>
<path d="M10.5017 9.8455C10.5256 9.59881 10.7175 9.34491 11.0331 9.26035C11.3487 9.17579 11.6418 9.29974 11.7859 9.5014C11.9865 9.78226 12.3769 9.84727 12.6577 9.6466C12.9386 9.44594 13.0036 9.05558 12.8029 8.77473C12.3442 8.13267 11.5088 7.83878 10.7096 8.05294C9.91028 8.26711 9.33376 8.93931 9.25751 9.72472C9.22416 10.0683 9.47564 10.3738 9.8192 10.4072C10.1628 10.4405 10.4683 10.1891 10.5017 9.8455Z" fill="white"/>
<path d="M11.6678 13.5256L12.0403 13.0238C12.3175 13.2295 12.3754 13.621 12.1697 13.8981C11.9659 14.1728 11.5797 14.2321 11.3031 14.0331L11.295 14.0279C11.283 14.0204 11.2596 14.0063 11.2251 13.9885C11.156 13.953 11.0436 13.9032 10.8908 13.8617C10.5895 13.7799 10.1162 13.7257 9.48603 13.8946C8.85586 14.0634 8.47307 14.347 8.25305 14.5685C8.14147 14.6809 8.06896 14.7802 8.02693 14.8455C8.00593 14.8781 7.99268 14.902 7.9861 14.9145L7.98171 14.9231C7.84159 15.2338 7.47748 15.3754 7.16366 15.2395C6.84691 15.1023 6.70134 14.7343 6.83852 14.4176L7.41204 14.666C6.83852 14.4176 6.83838 14.4179 6.83852 14.4176L6.83909 14.4163L6.83971 14.4149L6.84108 14.4118L6.84436 14.4045L6.85314 14.3856C6.86001 14.3713 6.86895 14.3532 6.88013 14.332C6.90248 14.2896 6.93389 14.2341 6.9758 14.169C7.05957 14.0388 7.18582 13.8692 7.36611 13.6877C7.72981 13.3215 8.30314 12.9174 9.1625 12.6872C10.0219 12.4569 10.7204 12.5201 11.2185 12.6555C11.4654 12.7225 11.6595 12.8063 11.7972 12.8771C11.866 12.9126 11.9209 12.9449 11.9615 12.9705C11.9818 12.9832 11.9986 12.9944 12.0117 13.0034L12.0287 13.0153L12.0352 13.02L12.0379 13.022L12.0392 13.0229L12.0403 13.0238C12.0406 13.024 12.0403 13.0238 11.6678 13.5256Z" fill="white"/>
<path fill-rule="evenodd" clip-rule="evenodd" d="M11.711 1.87546L11.7456 1.89164C12.7186 2.3473 13.1558 2.55072 13.6083 2.69434C13.7687 2.74524 13.9305 2.79058 14.0937 2.8303C14.5537 2.94231 15.029 2.99463 16.0897 3.10863L16.1276 3.1127C16.8011 3.18506 17.3612 3.24524 17.8023 3.34616C18.2639 3.45177 18.6809 3.61918 19.0093 3.9646C19.2002 4.16544 19.354 4.39926 19.4642 4.65438C19.6515 5.0879 19.6527 5.541 19.584 6.02016C19.5177 6.4824 19.373 7.04704 19.197 7.73382L18.4838 10.5162C17.8871 12.8442 16.3729 14.1378 14.8535 14.8404C14.249 16.1524 13.3003 17.1579 12.5167 17.8268L12.499 17.8419C12.2902 18.0202 12.085 18.1954 11.8158 18.3493C11.536 18.5092 11.2123 18.6331 10.7584 18.7603C10.3048 18.8874 9.96431 18.9496 9.64358 18.9574C9.3345 18.9649 9.07071 18.92 8.80478 18.8747L8.78172 18.8708C6.8472 18.5421 3.77182 17.4427 2.85084 13.8495L2.13769 11.0671C1.96165 10.3804 1.81691 9.81573 1.75064 9.35349C1.68195 8.87433 1.68318 8.42124 1.87045 7.98771C1.98066 7.73259 2.13441 7.49878 2.32537 7.29793C2.65379 6.95252 3.07074 6.78511 3.53236 6.6795C3.97348 6.57858 4.53355 6.5184 5.20703 6.44604L5.24494 6.44196C5.67739 6.39548 6.01253 6.35926 6.289 6.32506L6.80999 4.29241C6.98591 3.60598 7.13065 3.04124 7.29446 2.60598C7.46383 2.15594 7.68343 1.75792 8.06118 1.47419C8.28256 1.30791 8.532 1.18359 8.79788 1.10822C9.25638 0.978225 9.70185 1.05353 10.1498 1.20257C10.5797 1.34561 11.093 1.58601 11.711 1.87546ZM17.273 10.2058C16.9295 11.5456 16.2225 12.4566 15.3875 13.0807C15.5118 12.2686 15.486 11.3764 15.2379 10.4085L14.4621 7.38179C14.5717 7.33928 14.6706 7.26538 14.7441 7.16253C14.8882 6.96087 15.1813 6.83692 15.4969 6.92148C15.8125 7.00605 16.0044 7.25995 16.0283 7.50663C16.0617 7.85019 16.3672 8.10167 16.7108 8.06832C17.0543 8.03497 17.3058 7.72942 17.2725 7.38585C17.1962 6.60045 16.6197 5.92824 15.8204 5.71408C15.1989 5.54753 14.5555 5.68823 14.0843 6.06098C14.0698 6.01936 14.0551 5.9788 14.0402 5.93931C13.8708 5.48927 13.6512 5.09125 13.2735 4.80752C13.0521 4.64124 12.8027 4.51693 12.5368 4.44155C12.1035 4.31871 11.6819 4.3792 11.2588 4.51199C11.1727 4.47549 11.0832 4.44456 10.9905 4.41973C10.1912 4.20556 9.35584 4.49945 8.89711 5.14151C8.79888 5.279 8.76432 5.44273 8.78757 5.5976C8.32865 5.8072 8.03095 5.93098 7.72636 6.02767C7.70077 6.03579 7.67515 6.04377 7.64949 6.05161L8.01188 4.63776C8.19902 3.90761 8.32752 3.40984 8.46435 3.04626C8.59839 2.69009 8.71026 2.54999 8.81188 2.47366C8.9119 2.39853 9.02274 2.34373 9.13883 2.31082C9.25001 2.2793 9.41313 2.27484 9.75512 2.38864C10.1072 2.50578 10.554 2.7139 11.2154 3.02366L11.26 3.04451C12.1768 3.47387 12.6906 3.71451 13.2301 3.88576C13.4177 3.94528 13.607 3.99834 13.798 4.04483C14.3475 4.17861 14.9082 4.23887 15.9073 4.34623L15.9561 4.35147C16.6773 4.42897 17.1631 4.48222 17.5235 4.56468C17.8717 4.64434 18.0157 4.73368 18.1034 4.82591C18.1914 4.91851 18.264 5.02812 18.3167 5.15008C18.3724 5.27893 18.4008 5.46513 18.3467 5.84276C18.2912 6.22958 18.1643 6.72806 17.9772 7.45803L17.273 10.2058ZM11.5795 5.72197C11.2275 5.83911 10.7807 6.04723 10.1192 6.35699L10.0747 6.37785C9.15789 6.80719 8.64401 7.04785 8.10454 7.21909C7.917 7.27862 7.72761 7.33167 7.53666 7.37816C6.98714 7.51195 6.42641 7.5722 5.42731 7.67956L5.37852 7.6848C4.65738 7.76231 4.17155 7.81556 3.81113 7.89802C3.46296 7.97767 3.31896 8.06701 3.23126 8.15925C3.14323 8.25184 3.07065 8.36146 3.01796 8.48341C2.9623 8.61226 2.93385 8.79846 2.98799 9.1761C3.04345 9.56292 3.17031 10.0614 3.35741 10.7914L4.0617 13.5391C4.79649 16.4059 7.22626 17.3386 8.99114 17.6385C9.28167 17.6879 9.43484 17.7121 9.61322 17.7077C9.78887 17.7035 10.0179 17.6696 10.4212 17.5566C10.8242 17.4438 11.0396 17.3532 11.1955 17.2641C11.3543 17.1733 11.4773 17.0706 11.7052 16.876C13.096 15.6889 14.7646 13.5962 14.0271 10.7189L13.3228 7.97109C13.1356 7.24095 13.0071 6.74318 12.8703 6.3796C12.7363 6.02343 12.6244 5.88332 12.5228 5.807C12.4228 5.73187 12.3119 5.67706 12.1958 5.64415C12.0846 5.61263 11.9215 5.60818 11.5795 5.72197Z" fill="white"/>
</svg>
