<svg width="25" height="24" viewBox="0 0 25 24" fill="none" xmlns="http://www.w3.org/2000/svg">
<path d="M9.5 5.25C9.08579 5.25 8.75 5.58579 8.75 6C8.75 6.41421 9.08579 6.75 9.5 6.75H15.5C15.9142 6.75 16.25 6.41421 16.25 6C16.25 5.58579 15.9142 5.25 15.5 5.25H9.5Z" fill="#999999"/>
<path fill-rule="evenodd" clip-rule="evenodd" d="M12.4425 1.25C10.3699 1.24999 8.73716 1.24997 7.46128 1.42337C6.15122 1.60141 5.10609 1.97468 4.28484 2.80484C3.46469 3.63387 3.09692 4.68702 2.9213 6.00741C2.74998 7.29551 2.74999 8.94462 2.75 11.0411V16.139C2.74999 17.6466 2.74998 18.8402 2.84601 19.7388C2.94091 20.6269 3.14447 21.428 3.72584 21.9638C4.19226 22.3937 4.78211 22.6646 5.41165 22.7367C6.19912 22.8268 6.93439 22.4508 7.65868 21.9377C8.39163 21.4185 9.28075 20.6321 10.4025 19.6399L10.439 19.6076C10.9591 19.1476 11.3112 18.8372 11.605 18.6224C11.8889 18.4148 12.0623 18.3397 12.2084 18.3103C12.4009 18.2715 12.5991 18.2715 12.7916 18.3103C12.9377 18.3397 13.1111 18.4148 13.395 18.6224C13.6888 18.8372 14.0409 19.1476 14.561 19.6076L14.5975 19.64C15.7193 20.6321 16.6084 21.4186 17.3413 21.9377C18.0656 22.4508 18.8009 22.8268 19.5883 22.7367C20.2179 22.6646 20.8077 22.3937 21.2742 21.9638C21.8555 21.428 22.0591 20.6269 22.154 19.7388C22.25 18.8402 22.25 17.6466 22.25 16.139V11.041C22.25 8.94462 22.25 7.2955 22.0787 6.00741C21.9031 4.68702 21.5353 3.63387 20.7152 2.80484C19.8939 1.97468 18.8488 1.60141 17.5387 1.42337C16.2628 1.24997 14.6301 1.24999 12.5575 1.25H12.4425ZM5.3512 3.85977C5.84797 3.35762 6.52251 3.06474 7.66328 2.90971C8.82645 2.75163 10.3573 2.75 12.5 2.75C14.6427 2.75 16.1736 2.75163 17.3367 2.90971C18.4775 3.06474 19.152 3.35762 19.6488 3.85977C20.1467 4.36303 20.4379 5.04819 20.5918 6.20518C20.7484 7.38292 20.75 8.93223 20.75 11.0975V16.0909C20.75 17.6572 20.749 18.7702 20.6625 19.5794C20.5739 20.4088 20.4104 20.72 20.2576 20.8608C20.0238 21.0763 19.7298 21.2107 19.4178 21.2464C19.2182 21.2692 18.8835 21.192 18.2083 20.7137C17.5497 20.2472 16.7211 19.5157 15.5547 18.484L15.5286 18.4609C15.0413 18.0299 14.6372 17.6725 14.2804 17.4116C13.9074 17.1388 13.5312 16.9292 13.0878 16.8398C12.6998 16.7617 12.3002 16.7617 11.9122 16.8398C11.4688 16.9292 11.0926 17.1388 10.7196 17.4116C10.3628 17.6725 9.95871 18.0299 9.47146 18.4609L9.44527 18.484C8.27887 19.5157 7.45026 20.2472 6.79165 20.7137C6.11646 21.192 5.78182 21.2692 5.58218 21.2464C5.27019 21.2107 4.97617 21.0763 4.74237 20.8608C4.58963 20.72 4.42614 20.4088 4.33752 19.5794C4.25104 18.7702 4.25 17.6572 4.25 16.0909V11.0975C4.25 8.93223 4.25156 7.38292 4.40821 6.20518C4.56209 5.04819 4.85333 4.36303 5.3512 3.85977Z" fill="#999999"/>
</svg>
