<svg width="25" height="24" viewBox="0 0 25 24" fill="none" xmlns="http://www.w3.org/2000/svg">
<path fill-rule="evenodd" clip-rule="evenodd" d="M16.101 2.40018C15.8812 2.18042 15.6047 2.19008 15.4531 2.2102C15.3097 2.22921 15.138 2.27808 14.9744 2.32464L14.8484 2.36045L14.746 2.29581C14.6074 2.20828 14.4585 2.11425 14.3261 2.05669C14.1767 1.99178 13.9246 1.91791 13.6597 2.05713C13.3999 2.1937 13.3144 2.43817 13.279 2.59373C13.2468 2.73529 13.233 2.91231 13.22 3.08065L13.21 3.20815L13.2092 3.21877L13.0976 3.31062C12.9643 3.42029 12.826 3.5341 12.7279 3.64136C12.624 3.75498 12.4637 3.96845 12.5044 4.26569C12.5465 4.57309 12.7691 4.73247 12.9082 4.80961C13.0342 4.87947 13.2 4.94064 13.3545 4.99764L13.4633 5.03785L13.5035 5.14671C13.5605 5.30122 13.6217 5.46702 13.6916 5.59298C13.7687 5.73208 13.9281 5.95467 14.2355 5.99676C14.5327 6.03746 14.7462 5.87723 14.8598 5.7733C14.9671 5.6752 15.0809 5.53687 15.1906 5.40357L15.2824 5.292L15.293 5.29116L15.4205 5.28121C15.5889 5.26813 15.7659 5.25438 15.9075 5.2222C16.063 5.18683 16.3075 5.10132 16.4441 4.84149C16.5833 4.5766 16.5094 4.32448 16.4445 4.17511C16.3869 4.0427 16.2929 3.89383 16.2054 3.75527L16.1407 3.6528L16.1765 3.5268C16.2231 3.36319 16.272 3.19146 16.291 3.04811C16.3111 2.89644 16.3208 2.61995 16.101 2.40018ZM15.2015 3.2997L15.1235 3.32185L15.1029 3.32789C15.0275 3.3503 14.8704 3.39699 14.7067 3.37457C14.5391 3.35162 14.4004 3.26159 14.3361 3.21989L14.319 3.20883L14.218 3.14512L14.207 3.28598L14.2055 3.30751C14.2002 3.3868 14.1894 3.54676 14.1131 3.69208C14.0377 3.83547 13.9134 3.93559 13.8506 3.98623L13.8333 4.00021L13.7426 4.07495L13.8201 4.10358L13.8391 4.11042C13.9108 4.13579 14.069 4.19182 14.1892 4.31201C14.3094 4.4322 14.3654 4.5904 14.3908 4.66204L14.3976 4.68113L14.4262 4.75862L14.501 4.66783L14.515 4.65059C14.5656 4.58774 14.6657 4.46348 14.8091 4.38811C14.9544 4.31174 15.1144 4.30102 15.1937 4.29571L15.2152 4.29419L15.3561 4.28319L15.2923 4.1822L15.2813 4.16504C15.2396 4.10078 15.1496 3.96206 15.1266 3.7945C15.1042 3.63074 15.1509 3.47363 15.1733 3.39824L15.1793 3.37765L15.2015 3.2997Z" fill="#999999"/>
<path d="M10.9346 3.17016C11.1507 2.81675 11.0393 2.35512 10.6859 2.13907C10.3325 1.92302 9.8709 2.03437 9.65485 2.38778C9.13665 3.23544 9.26652 4.32775 9.96904 5.03027L10.0669 5.12815C10.2646 5.32581 10.3375 5.61619 10.2566 5.88378C10.1367 6.28027 10.361 6.69885 10.7575 6.81871C11.154 6.93856 11.5726 6.71429 11.6924 6.3178C11.9333 5.52092 11.7162 4.65615 11.1276 4.06749L11.0297 3.96961C10.8172 3.75707 10.7779 3.42661 10.9346 3.17016Z" fill="#999999"/>
<path d="M8.1858 3.94057C7.97633 3.7311 7.63671 3.7311 7.42724 3.94057C7.21777 4.15004 7.21777 4.48965 7.42724 4.69912C7.63671 4.90859 7.97633 4.90859 8.1858 4.69912C8.39527 4.48965 8.39527 4.15004 8.1858 3.94057Z" fill="#999999"/>
<path d="M18.7771 5.6039C18.8583 5.19773 18.5949 4.80262 18.1887 4.72138C17.7826 4.64015 17.3874 4.90356 17.3062 5.30973L17.1622 6.02967C17.0696 6.49265 16.736 6.87052 16.2881 7.01983C15.3295 7.33936 14.6157 8.14802 14.4175 9.13884L14.2735 9.85877C14.1923 10.2649 14.4557 10.6601 14.8619 10.7413C15.268 10.8225 15.6631 10.5591 15.7444 10.1529L15.8884 9.43301C15.981 8.97003 16.3145 8.59216 16.7625 8.44285C17.721 8.12332 18.4349 7.31466 18.6331 6.32384L18.7771 5.6039Z" fill="#999999"/>
<path fill-rule="evenodd" clip-rule="evenodd" d="M23.0231 8.84204C23.279 9.39595 23.1063 10.0248 22.6392 10.4919C22.3683 10.7628 22.0053 10.8855 21.682 10.943C21.3513 11.0018 21.0017 11.003 20.6955 10.9833C20.3862 10.9636 20.1027 10.9213 19.8977 10.8845C19.7946 10.8659 19.7101 10.8486 19.6505 10.8356L19.6042 10.8253L19.5803 10.8198L19.5606 10.8151L19.5548 10.8137L19.553 10.8133C19.5529 10.8133 19.5518 10.813 19.672 10.3277L19.5518 10.813C19.3718 10.7684 19.2311 10.6276 19.1866 10.4476L19.1859 10.4448L19.1845 10.439L19.1798 10.4193C19.1759 10.4026 19.1705 10.3789 19.164 10.3491C19.1511 10.2895 19.1337 10.205 19.1152 10.102C19.0783 9.89694 19.0361 9.61337 19.0163 9.30412C18.9967 8.99788 18.9978 8.64831 19.0566 8.31761C19.1141 7.99434 19.2368 7.63133 19.5077 7.36045C19.9748 6.89332 20.6037 6.72065 21.1576 6.97651C21.5777 7.17058 21.851 7.56336 21.954 8.04565C22.4363 8.14858 22.829 8.42187 23.0231 8.84204ZM20.0956 9.90398C20.2737 9.93537 20.509 9.96937 20.7594 9.98539C21.0228 10.0023 21.2847 9.99796 21.5069 9.95845C21.7365 9.91761 21.8678 9.84908 21.9321 9.78482C22.1748 9.54207 22.1563 9.35009 22.1153 9.26137C22.0708 9.16498 21.9111 8.99855 21.5013 8.99964C21.3682 9 21.2405 8.94729 21.1464 8.8532C21.0523 8.7591 20.9996 8.63138 21 8.49831C21.0011 8.0885 20.8346 7.92886 20.7382 7.88434C20.6495 7.84336 20.4576 7.8248 20.2148 8.06756C20.1505 8.13181 20.082 8.26307 20.0412 8.4927C20.0017 8.7149 19.9974 8.97686 20.0142 9.24024C20.0303 9.49059 20.0642 9.72595 20.0956 9.90398Z" fill="#999999"/>
<path d="M20.8304 13.7295C21.1258 13.4675 21.5464 13.4011 21.9082 13.5593L22.1996 13.6867C22.5792 13.8527 23.0213 13.6795 23.1873 13.3C23.3532 12.9205 23.1801 12.4783 22.8006 12.3123L22.5091 12.1849C21.6117 11.7925 20.568 11.9573 19.8352 12.6072C19.509 12.8964 19.0344 12.9445 18.6568 12.7265L18.444 12.6036C18.0853 12.3965 17.6266 12.5194 17.4195 12.8781C17.2123 13.2368 17.3353 13.6955 17.694 13.9026L17.9068 14.0255C18.8435 14.5663 20.0212 14.4471 20.8304 13.7295Z" fill="#999999"/>
<path d="M19.5579 15.3131C19.7673 15.1037 20.1069 15.1037 20.3164 15.3131C20.5259 15.5226 20.5259 15.8622 20.3164 16.0717C20.1069 16.2812 19.7673 16.2812 19.5579 16.0717C19.3484 15.8622 19.3484 15.5226 19.5579 15.3131Z" fill="#999999"/>
<path d="M13.4153 7.15689C13.2058 6.94742 12.8662 6.94742 12.6567 7.15689C12.4473 7.36636 12.4473 7.70597 12.6567 7.91544C12.8662 8.12491 13.2058 8.12491 13.4153 7.91544C13.6248 7.70597 13.6248 7.36636 13.4153 7.15689Z" fill="#999999"/>
<path d="M17.6567 10.1569C17.8662 9.94742 18.2058 9.94742 18.4153 10.1569C18.6248 10.3664 18.6248 10.706 18.4153 10.9154C18.2058 11.1249 17.8662 11.1249 17.6567 10.9154C17.4473 10.706 17.4473 10.3664 17.6567 10.1569Z" fill="#999999"/>
<path fill-rule="evenodd" clip-rule="evenodd" d="M10.1385 6.88473C10.7248 7.31945 11.3994 7.99407 12.218 8.81276L15.6857 12.2804C16.5044 13.0991 17.179 13.7737 17.6137 14.36C18.0629 14.9658 18.3793 15.639 18.1963 16.4143C18.0133 17.1896 17.4291 17.6502 16.7565 17.9912C16.1055 18.3212 15.2004 18.6229 14.1021 18.9889L8.91179 20.719C7.58192 21.1623 6.50274 21.5221 5.66592 21.671C4.82152 21.8212 3.96466 21.806 3.32856 21.1699C2.69245 20.5338 2.6773 19.6769 2.82751 18.8325C2.97638 17.9957 3.33615 16.9165 3.77949 15.5865L5.50953 10.3964C5.87562 9.29803 6.17728 8.39297 6.5073 7.74194C6.84826 7.06932 7.30887 6.48517 8.08417 6.30214C8.85947 6.11912 9.5327 6.43561 10.1385 6.88473ZM9.2451 8.08968C9.22762 8.07672 9.2105 8.06423 9.19373 8.05218C9.18222 8.11445 9.16999 8.18137 9.15715 8.25262C9.07215 8.72423 8.9608 9.38373 8.8555 10.1341C8.64288 11.6495 8.46305 13.4814 8.5551 14.8852C8.61083 15.7351 8.79285 16.8345 8.96659 17.7416C9.05264 18.1908 9.13512 18.585 9.19604 18.8667C9.20906 18.9269 9.22108 18.9819 9.23194 19.0312L11.8666 18.1529C11.7974 17.9474 11.7144 17.6827 11.6315 17.3746C11.4325 16.6348 11.2267 15.6173 11.2267 14.5552C11.2267 13.4399 11.4316 12.4226 11.6325 11.6905C11.7334 11.3225 11.8348 11.0217 11.9118 10.8105C11.9298 10.7613 11.9464 10.7169 11.9615 10.6775L11.2017 9.91776C10.3275 9.04358 9.73121 8.45009 9.2451 8.08968ZM6.91272 10.9303C7.12169 10.3034 7.29551 9.78369 7.45384 9.35331C7.42588 9.53684 7.39777 9.72818 7.37006 9.92569C7.15492 11.4589 6.95566 13.4179 7.05831 14.9833C7.12043 15.9306 7.3175 17.1056 7.49338 18.0238C7.58214 18.4872 7.66712 18.8933 7.72994 19.1838C7.75898 19.318 7.78333 19.4278 7.80119 19.5073C6.76037 19.851 5.9936 20.0891 5.40321 20.1941C4.68243 20.3224 4.483 20.203 4.38922 20.1092C4.29544 20.0155 4.17611 19.816 4.30432 19.0953C4.43158 18.3799 4.75425 17.4057 5.22323 15.9987L6.91272 10.9303ZM13.5682 17.5857L13.2897 17.6786C13.2287 17.498 13.1544 17.2616 13.08 16.985C13.0262 16.7848 12.9729 16.566 12.9247 16.334C12.8118 15.7901 12.7267 15.1738 12.7267 14.5552C12.7267 13.615 12.9008 12.7369 13.079 12.0874C13.1009 12.0078 13.1227 11.932 13.1441 11.8602L14.5807 13.2968C15.4549 14.1709 16.0484 14.7673 16.4088 15.2534C16.7626 15.7306 16.7674 15.9387 16.7364 16.0697C16.7055 16.2006 16.6082 16.3846 16.0783 16.6532C15.5386 16.9269 14.741 17.1948 13.5682 17.5857Z" fill="#999999"/>
</svg>
