<svg width="21" height="20" viewBox="0 0 21 20" fill="none" xmlns="http://www.w3.org/2000/svg">
<path fill-rule="evenodd" clip-rule="evenodd" d="M10.8134 2.31443C10.6993 2.28386 10.5792 2.28386 10.4651 2.31443C10.4209 2.32626 10.3468 2.3576 10.1953 2.48393C10.0371 2.61577 9.84573 2.80632 9.5517 3.10035C9.25768 3.39437 9.06713 3.58577 8.93528 3.7439C8.80896 3.8954 8.77762 3.96957 8.76579 4.01374C8.73522 4.12781 8.73522 4.24793 8.76579 4.362C8.77762 4.40617 8.80896 4.48034 8.93528 4.63184C9.06713 4.78997 9.25768 4.98137 9.5517 5.27539L15.0578 10.7815C15.3518 11.0755 15.5432 11.266 15.7013 11.3979C15.8528 11.5242 15.927 11.5556 15.9712 11.5674C16.0852 11.598 16.2054 11.598 16.3194 11.5674C16.3636 11.5556 16.4378 11.5242 16.5893 11.3979C16.7474 11.266 16.9388 11.0755 17.2328 10.7815C17.5268 10.4874 17.7174 10.296 17.8492 10.1379C17.9756 9.98642 18.0069 9.91224 18.0187 9.86808C18.0493 9.754 18.0493 9.63389 18.0187 9.51981C18.0069 9.47565 17.9756 9.40147 17.8492 9.24997C17.7174 9.09184 17.5269 8.90045 17.2328 8.60642L16.621 7.99464C16.208 7.58162 16.208 6.91199 16.621 6.49897C16.9219 6.19807 17.1022 6.01592 17.215 5.8681C17.2669 5.80007 17.2884 5.75934 17.2973 5.73804C17.3036 5.72289 17.3033 5.7186 17.3032 5.71753C17.3033 5.71646 17.3036 5.71178 17.2973 5.69663C17.2884 5.67533 17.2669 5.6346 17.215 5.56657C17.1022 5.41875 16.9219 5.2366 16.621 4.93571L15.3975 3.71213C15.0966 3.41124 14.9144 3.23097 14.7666 3.11818C14.6986 3.06628 14.6578 3.0448 14.6365 3.03592C14.6214 3.0296 14.6171 3.02991 14.616 3.02998C14.6159 3.02999 14.6161 3.02998 14.616 3.02998C14.6154 3.02998 14.6115 3.02912 14.5951 3.03592C14.5738 3.0448 14.5331 3.06628 14.4651 3.11818C14.341 3.21285 14.1927 3.35505 13.9704 3.57622L15.3637 4.9695C15.6077 5.21358 15.6077 5.60931 15.3637 5.85338C15.1196 6.09746 14.7239 6.09746 14.4798 5.85338L11.7267 3.10035C11.4327 2.80632 11.2413 2.61577 11.0832 2.48393C10.9317 2.3576 10.8575 2.32626 10.8134 2.31443ZM13.0864 2.69226L12.5915 2.19735C12.322 1.92777 12.0906 1.69635 11.8837 1.52387C11.6653 1.3418 11.4286 1.18519 11.1369 1.10702C10.8109 1.01966 10.4676 1.01966 10.1416 1.10702C9.84984 1.18519 9.61312 1.3418 9.39476 1.52387C9.1879 1.69635 8.95649 1.92777 8.68693 2.19735L8.64869 2.23559C8.37912 2.50515 8.1477 2.73654 7.97522 2.9434C7.79315 3.16177 7.63655 3.39849 7.55838 3.69021C7.47102 4.01624 7.47102 4.35951 7.55838 4.68553C7.63655 4.97725 7.79315 5.21397 7.97522 5.43234C8.1477 5.63919 8.37911 5.87059 8.64868 6.14014L9.14356 6.63502L6.96851 8.81006L6.47364 8.31519C6.20408 8.04562 5.97269 7.81421 5.76583 7.64173C5.54747 7.45966 5.31075 7.30305 5.01902 7.22488C4.693 7.13753 4.34973 7.13753 4.02371 7.22488C3.73198 7.30305 3.49526 7.45966 3.2769 7.64173C3.07004 7.81421 2.83864 8.04563 2.56907 8.31521L2.53085 8.35344C2.26127 8.623 2.02985 8.8544 1.85736 9.06126C1.67529 9.27963 1.51869 9.51635 1.44052 9.80808C1.35316 10.1341 1.35316 10.4774 1.44052 10.8034C1.51869 11.0951 1.67529 11.3318 1.85736 11.5502C2.02984 11.7571 2.26125 11.9884 2.53082 12.258L2.54996 12.2771L3.02575 12.7529C2.80371 12.9758 2.60419 13.1816 2.4579 13.3734C2.27128 13.6179 2.11349 13.9116 2.11349 14.2823C2.11349 14.6531 2.27129 14.9467 2.4579 15.1913C2.62784 15.4141 2.86961 15.6558 3.13507 15.9212L4.41198 17.1981C4.67738 17.4636 4.91911 17.7053 5.14184 17.8753C5.38643 18.0619 5.68004 18.2197 6.05083 18.2197C6.42162 18.2197 6.71523 18.0619 6.95982 17.8753C7.15156 17.729 7.35737 17.5295 7.58024 17.3074L8.0752 17.8024C8.34474 18.0719 8.57612 18.3033 8.78297 18.4758C9.00134 18.6579 9.23806 18.8145 9.52979 18.8927C9.8558 18.98 10.1991 18.98 10.5251 18.8927C10.8168 18.8145 11.0535 18.6579 11.2719 18.4758C11.4788 18.3033 11.7102 18.0719 11.9797 17.8024L12.018 17.7641C12.2875 17.4945 12.519 17.2631 12.6914 17.0563C12.8735 16.8379 13.0301 16.6012 13.1083 16.3095C13.1956 15.9834 13.1956 15.6402 13.1083 15.3142C13.0301 15.0224 12.8735 14.7857 12.6914 14.5673C12.519 14.3605 12.2875 14.1291 12.018 13.8595L11.5231 13.3647L13.6982 11.1896L14.193 11.6845C14.4626 11.9541 14.694 12.1855 14.9008 12.3579C15.1192 12.54 15.3559 12.6966 15.6476 12.7748C15.9737 12.8622 16.3169 12.8622 16.643 12.7748C16.9347 12.6966 17.1714 12.54 17.3898 12.3579C17.5966 12.1855 17.828 11.9541 18.0976 11.6845L18.1358 11.6463C18.4054 11.3767 18.6368 11.1453 18.8093 10.9384C18.9914 10.72 19.148 10.4833 19.2261 10.1916C19.3135 9.86558 19.3135 9.52231 19.2262 9.19629C19.148 8.90456 18.9914 8.66784 18.8093 8.44948C18.6368 8.24261 18.4054 8.0112 18.1358 7.74163L17.6409 7.24674C17.863 7.02387 18.0625 6.81806 18.2088 6.62633C18.3954 6.38174 18.5532 6.08812 18.5532 5.71734C18.5532 5.34655 18.3954 5.05294 18.2088 4.80834C18.0388 4.58561 17.7971 4.34389 17.5316 4.07848L16.2547 2.80157C15.9893 2.53611 15.7476 2.29434 15.5248 2.12441C15.2802 1.93779 14.9866 1.78 14.6158 1.78C14.245 1.78 13.9514 1.93779 13.7068 2.12441C13.5151 2.27069 13.3093 2.47022 13.0864 2.69226ZM17.5049 7.11075C17.5048 7.11067 17.505 7.11083 17.5049 7.11075ZM12.8143 10.3057L10.0274 7.5189L7.85239 9.69394L10.6392 12.4808L12.8143 10.3057ZM3.90972 13.6369C3.68855 13.8592 3.54634 14.0075 3.45168 14.1316C3.39978 14.1996 3.3783 14.2403 3.36942 14.2616C3.3631 14.2768 3.3634 14.2811 3.36348 14.2821C3.36341 14.2832 3.3631 14.2879 3.36942 14.303C3.3783 14.3243 3.39978 14.3651 3.45168 14.4331C3.56446 14.5809 3.74474 14.7631 4.04563 15.064L5.2692 16.2875C5.57009 16.5884 5.75224 16.7687 5.90007 16.8815C5.96809 16.9334 6.00883 16.9549 6.03013 16.9638C6.04645 16.9706 6.05017 16.9697 6.05083 16.9697C6.05088 16.9697 6.05075 16.9697 6.05083 16.9697C6.0519 16.9698 6.05638 16.9701 6.07153 16.9638C6.09283 16.9549 6.13357 16.9334 6.2016 16.8815C6.34942 16.7687 6.53157 16.5884 6.83246 16.2875C7.24548 15.8745 7.91511 15.8745 8.32813 16.2875L8.93992 16.8993C9.23394 17.1934 9.42534 17.3839 9.58347 17.5158C9.73497 17.6421 9.80914 17.6734 9.85331 17.6852C9.96739 17.7158 10.0875 17.7158 10.2016 17.6852C10.2457 17.6734 10.3199 17.6421 10.4714 17.5158C10.6295 17.3839 10.8209 17.1934 11.115 16.8993C11.409 16.6053 11.5995 16.4139 11.7314 16.2558C11.8577 16.1043 11.889 16.0301 11.9009 15.9859C11.9314 15.8719 11.9314 15.7518 11.9009 15.6377C11.889 15.5935 11.8577 15.5193 11.7314 15.3678C11.5995 15.2097 11.409 15.0183 11.115 14.7243L5.60889 9.21821C5.31486 8.92418 5.12347 8.73363 4.96534 8.60179C4.81384 8.47546 4.73966 8.44412 4.6955 8.43229C4.58142 8.40172 4.46131 8.40172 4.34724 8.43229C4.30307 8.44412 4.22889 8.47546 4.07739 8.60179C3.91926 8.73363 3.72787 8.92418 3.43384 9.21821C3.13982 9.51223 2.94927 9.70363 2.81742 9.86176C2.6911 10.0133 2.65976 10.0874 2.64793 10.1316C2.61736 10.2457 2.61736 10.3658 2.64793 10.4799C2.65976 10.524 2.6911 10.5982 2.81742 10.7497C2.94927 10.9078 3.13982 11.0992 3.43384 11.3933L6.18688 14.1463C6.43096 14.3904 6.43096 14.7861 6.18688 15.0302C5.9428 15.2743 5.54707 15.2743 5.303 15.0302L3.90972 13.6369Z" fill="white"/>
</svg>
