<svg width="90" height="37" viewBox="0 0 90 37" fill="none" xmlns="http://www.w3.org/2000/svg">
<path d="M6.876 28.648C4.692 28.648 3.036 28.048 1.908 26.848C0.804 25.648 0.252 24.136 0.252 22.312C0.252 21.016 0.516 19.72 1.044 18.424C1.596 17.104 2.376 15.952 3.384 14.968C4.392 13.984 5.568 13.324 6.912 12.988C6.168 12.46 5.616 11.824 5.256 11.08C4.896 10.312 4.716 9.508 4.716 8.668C4.716 7.42 5.052 6.196 5.724 4.996C6.42 3.796 7.368 2.824 8.568 2.08C9.792 1.312 11.136 0.927999 12.6 0.927999C14.112 0.927999 15.348 1.324 16.308 2.116C17.268 2.908 17.748 4.012 17.748 5.428C17.748 6.484 17.484 7.372 16.956 8.092C16.428 8.812 15.804 9.172 15.084 9.172C14.436 9.172 13.872 8.848 13.392 8.2C13.824 8.056 14.196 7.66 14.508 7.012C14.82 6.364 14.976 5.716 14.976 5.068C14.976 4.372 14.784 3.868 14.4 3.556C14.016 3.22 13.548 3.052 12.996 3.052C12.3 3.052 11.664 3.304 11.088 3.808C10.536 4.288 10.104 4.924 9.792 5.716C9.48 6.484 9.324 7.288 9.324 8.128C9.324 9.28 9.624 10.3 10.224 11.188C10.824 12.052 11.736 12.64 12.96 12.952C11.736 13.216 10.632 13.816 9.648 14.752C8.664 15.688 7.896 16.78 7.344 18.028C6.792 19.252 6.516 20.428 6.516 21.556C6.516 22.636 6.792 23.512 7.344 24.184C7.92 24.856 8.784 25.192 9.936 25.192C11.136 25.192 12.384 24.868 13.68 24.22C15 23.548 15.972 22.648 16.596 21.52L17.424 21.88C16.488 23.944 15.048 25.588 13.104 26.812C11.16 28.036 9.084 28.648 6.876 28.648ZM20.6274 28.216C19.2354 28.216 18.1434 27.868 17.3514 27.172C16.5834 26.452 16.1994 25.384 16.1994 23.968C16.1994 23.392 16.2594 22.816 16.3794 22.24L18.9714 10H24.1554L21.5634 22.24C21.4434 22.84 21.3834 23.272 21.3834 23.536C21.3834 24.328 21.7914 24.724 22.6074 24.724C23.7114 24.724 24.7314 24.028 25.6674 22.636C26.6274 21.244 27.3954 19.588 27.9714 17.668C28.5474 15.748 28.8354 14.092 28.8354 12.7C28.7874 12.82 28.6314 12.916 28.3674 12.988C28.1034 13.036 27.8754 13.06 27.6834 13.06C27.2754 13.06 26.9514 12.868 26.7114 12.484C26.4954 12.1 26.3874 11.68 26.3874 11.224C26.3874 10.648 26.5674 10.18 26.9274 9.82C27.3114 9.46 27.8754 9.28 28.6194 9.28C29.4114 9.28 29.9874 9.58 30.3474 10.18C30.7074 10.756 30.8874 11.5 30.8874 12.412C30.8874 14.572 30.5154 16.888 29.7714 19.36C29.0274 21.808 27.8874 23.896 26.3514 25.624C24.8154 27.352 22.9074 28.216 20.6274 28.216ZM36.5777 28.216C34.8017 28.216 33.4217 27.76 32.4377 26.848C31.4537 25.912 30.9617 24.46 30.9617 22.492C30.9617 20.836 31.2857 19.012 31.9337 17.02C32.5817 15.028 33.6377 13.312 35.1017 11.872C36.5657 10.408 38.4257 9.676 40.6817 9.676C43.3217 9.676 44.6417 10.828 44.6417 13.132C44.6417 14.476 44.2577 15.712 43.4897 16.84C42.7217 17.968 41.7017 18.88 40.4297 19.576C39.1577 20.248 37.8017 20.632 36.3617 20.728C36.3137 21.448 36.2897 21.928 36.2897 22.168C36.2897 23.344 36.4937 24.148 36.9017 24.58C37.3097 24.988 37.9697 25.192 38.8817 25.192C40.1777 25.192 41.2817 24.892 42.1937 24.292C43.1297 23.692 44.1497 22.78 45.2537 21.556H46.4777C43.8137 25.996 40.5137 28.216 36.5777 28.216ZM36.6497 19C37.5377 18.952 38.3777 18.64 39.1697 18.064C39.9857 17.488 40.6337 16.756 41.1137 15.868C41.6177 14.98 41.8697 14.044 41.8697 13.06C41.8697 12.076 41.5697 11.584 40.9697 11.584C40.1057 11.584 39.2537 12.34 38.4137 13.852C37.5977 15.364 37.0097 17.08 36.6497 19ZM58.2421 28.216C56.7781 28.216 55.6981 27.832 55.0021 27.064C54.3301 26.272 53.9941 25.3 53.9941 24.148C53.9941 23.644 54.0541 23.08 54.1741 22.456C54.2941 21.808 54.4141 21.184 54.5341 20.584C54.6781 19.984 54.7741 19.6 54.8221 19.432C55.0141 18.592 55.1941 17.764 55.3621 16.948C55.5301 16.132 55.6141 15.472 55.6141 14.968C55.6141 13.744 55.1821 13.132 54.3181 13.132C53.6941 13.132 53.1421 13.444 52.6621 14.068C52.1821 14.668 51.7981 15.46 51.5101 16.444L49.0621 28H43.8781L47.6941 10H52.8781L52.4821 11.872C53.6821 10.528 55.0861 9.856 56.6941 9.856C57.9181 9.856 58.8901 10.192 59.6101 10.864C60.3301 11.536 60.6901 12.556 60.6901 13.924C60.6901 14.62 60.6061 15.4 60.4381 16.264C60.2701 17.104 60.0301 18.136 59.7181 19.36C59.5261 20.104 59.3461 20.836 59.1781 21.556C59.0341 22.252 58.9621 22.804 58.9621 23.212C58.9621 23.692 59.0701 24.064 59.2861 24.328C59.5021 24.592 59.8741 24.724 60.4021 24.724C61.1221 24.724 61.6981 24.472 62.1301 23.968C62.5621 23.44 62.9941 22.636 63.4261 21.556H64.9381C64.0501 24.196 63.0181 25.972 61.8421 26.884C60.6901 27.772 59.4901 28.216 58.2421 28.216ZM69.1459 8.02C68.3539 8.02 67.6819 7.744 67.1299 7.192C66.5779 6.64 66.3019 5.968 66.3019 5.176C66.3019 4.384 66.5779 3.712 67.1299 3.16C67.6819 2.584 68.3539 2.296 69.1459 2.296C69.9379 2.296 70.6099 2.584 71.1619 3.16C71.7379 3.712 72.0259 4.384 72.0259 5.176C72.0259 5.968 71.7379 6.64 71.1619 7.192C70.6099 7.744 69.9379 8.02 69.1459 8.02ZM60.1819 37C59.0299 37 58.0699 36.7 57.3019 36.1C56.5339 35.5 56.1499 34.636 56.1499 33.508C56.1499 31.18 58.1179 29.392 62.0539 28.144L65.9059 10H71.0899L67.5259 26.704C68.6779 26.32 69.6019 25.744 70.2979 24.976C70.9939 24.208 71.5819 23.068 72.0619 21.556H73.5739C72.9259 23.692 72.0499 25.264 70.9459 26.272C69.8419 27.256 68.5939 27.928 67.2019 28.288L66.6619 30.88C66.1819 33.208 65.3539 34.804 64.1779 35.668C63.0019 36.556 61.6699 37 60.1819 37ZM59.3539 34.192C59.7619 34.192 60.1579 33.916 60.5419 33.364C60.9259 32.812 61.2259 32.02 61.4419 30.988L61.6579 29.944C59.3059 30.808 58.1299 31.828 58.1299 33.004C58.1299 33.316 58.2379 33.592 58.4539 33.832C58.6699 34.072 58.9699 34.192 59.3539 34.192ZM77.3263 28.144C75.5503 28.144 74.1463 27.688 73.1143 26.776C72.0823 25.864 71.5663 24.424 71.5663 22.456C71.5663 20.8 71.8903 18.988 72.5383 17.02C73.1863 15.028 74.2423 13.312 75.7063 11.872C77.1703 10.408 79.0423 9.676 81.3223 9.676C84.1543 9.676 85.6783 11.296 85.8943 14.536C86.4223 14.416 86.8903 14.128 87.2983 13.672C87.7063 13.192 88.0903 12.652 88.4503 12.052H89.6023C88.9543 13.348 88.3783 14.368 87.8743 15.112C87.3703 15.832 86.7103 16.42 85.8943 16.876C85.7503 19.132 85.2823 21.112 84.4903 22.816C83.7223 24.52 82.7143 25.84 81.4663 26.776C80.2183 27.688 78.8383 28.144 77.3263 28.144ZM78.7663 24.904C79.6543 24.904 80.4823 24.184 81.2503 22.744C82.0183 21.304 82.5463 19.528 82.8343 17.416C82.2583 17.2 81.9703 16.66 81.9703 15.796C81.9703 14.86 82.3063 14.236 82.9783 13.924C82.9303 13.156 82.7983 12.628 82.5823 12.34C82.3903 12.028 82.0663 11.872 81.6103 11.872C80.8183 11.872 80.0623 12.448 79.3423 13.6C78.6223 14.728 78.0343 16.108 77.5783 17.74C77.1463 19.348 76.9303 20.764 76.9303 21.988C76.9303 23.14 77.0623 23.92 77.3263 24.328C77.5903 24.712 78.0703 24.904 78.7663 24.904Z" fill="#C14FE6"/>
</svg>
